<?xml version="1.0" encoding="UTF-8" standalone="no"?>
<svg
   xmlns:dc="http://purl.org/dc/elements/1.1/"
   xmlns:cc="http://creativecommons.org/ns#"
   xmlns:rdf="http://www.w3.org/1999/02/22-rdf-syntax-ns#"
   xmlns:svg="http://www.w3.org/2000/svg"
   xmlns="http://www.w3.org/2000/svg"
   version="1.1"
   id="svg12570"
   viewBox="0 0 199.9 35.099997"
   height="9.9059992mm"
   width="56.416222mm">
  <defs
     id="defs12572" />
  <metadata
     id="metadata12575">
    <rdf:RDF>
      <cc:Work
         rdf:about="">
        <dc:format>image/svg+xml</dc:format>
        <dc:type
           rdf:resource="http://purl.org/dc/dcmitype/StillImage" />
        <dc:title></dc:title>
      </cc:Work>
    </rdf:RDF>
  </metadata>
  <g
     transform="translate(-0.05000424,-0.52649286)"
     id="layer1">
    <path
       id="path8068"
       d="m 12.550004,8.4264929 -7.7999998,0 0,-7.90000004 -4.69999996,0 0,21.10000014 4.69999996,0 0,-9.1 7.6999998,0 0,9.1 4.7,0 0,-21.10000014 -4.7,0 0,7.90000004 z m 21.9,3.5000001 c 0,-2.2000001 -0.4,-3.5000001 -1.5,-4.5000001 -1.2,-1 -3,-1.6 -5.3,-1.6 -4.3,0 -6.5,1.7 -6.8,5.2000001 l 4,0 c 0.2,-1.2000001 1.1,-1.8000001 2.7,-1.8000001 1.5,0 2.3,0.5 2.3,1.4000001 0,0.6 -0.3,0.9 -1.4,1 l -2.4,0.4 c -4.3,0.7 -6.1,2.2 -6.1,5.1 0,2.9 2.2,4.8 5.6,4.8 1.8,0 2.9,-0.4 4.4,-1.6 0.2,0.6 0.2,0.7 0.3,1.2 l 4.6,0 c -0.5,-0.8 -0.6,-1 -0.6,-2.6 l 0,-7 z m -4.4,4.7 c -0.7,1.3 -1.8,1.9 -3.3,1.9 -1.4,0 -2.3,-0.6 -2.3,-1.6 0,-0.9 0.7,-1.5 2.3,-1.8 l 1.6,-0.3 c 0.8,-0.2 1.2,-0.3 1.6,-0.5 l 0,2.3 z m 16.1,-10.7000001 c -1.6,0 -2.5,0.4 -4.2,1.9 l 0,-1.5 -4.4,0 0,15.3000001 4.5,0 0,-8.6 c 0,-1.3 0.2,-2 0.7,-2.5 0.5,-0.5 1.2,-0.8000001 1.9,-0.8000001 0.8,0 1.5,0.3000001 1.8,0.9000001 0.4,0.6 0.5,1.2 0.5,2.7 l 0,8.3 4.5,0 0,-9.9 c 0,-3.6000001 -2,-5.8000001 -5.3,-5.8000001 z m 18.4,1.6 c -1.1,-1.1 -2.2,-1.6 -3.9,-1.6 -4.1,0 -6.8,3.2 -6.8,8.1000001 0,4.8 2.7,8 6.7,8 1.9,0 3.1,-0.6 4.2,-2.1 l 0,1.6 4.3,0 0,-21.00000014 -4.5,0 0,7.00000004 z m -3,10.9000001 c -2,0 -3.2,-1.7 -3.2,-4.4 0,-2.7 1.3,-4.4000001 3.2,-4.4000001 2,0 3.2,1.8000001 3.2,4.5000001 0,2.5 -1.3,4.3 -3.2,4.3 z m 18.9,-6.2 -2.8,-0.6 c -1.4,-0.3 -1.9,-0.6 -1.9,-1.2 0,-0.8000001 0.9,-1.3000001 2.1,-1.3000001 1.5,0 2.4,0.6 2.6,1.7000001 l 4.2,0 c -0.4,-3.2000001 -2.8,-5.0000001 -6.7,-5.0000001 -4.1,0 -6.5,1.9 -6.5,4.9000001 0,2.4 1.3,3.7 4.6,4.4 l 2.8,0.6 c 1.2,0.3 1.7,0.7 1.7,1.4 0,0.9 -0.9,1.5 -2.3,1.5 -1.8,0 -2.7,-0.7 -3,-2.1 l -4.2,0 c 0.3,3.4 2.9,5.4 7.1,5.4 4.2,0 6.9,-2 6.9,-5.2 0,-1.2 -0.4,-2.4 -1.1,-3.1 -0.7,-0.6 -1.6,-1 -3.5,-1.4 z m 14.2,-6.3000001 c -4.7,0 -8.1,3.3 -8.1,8.0000001 0,4.7 3.3,8.1 8.1,8.1 4.700003,0 8.100006,-3.3 8.100006,-7.9 0,-4.9000001 -3.200003,-8.2000001 -8.100006,-8.2000001 z m 0.1,12.5000001 c -2.3,0 -3.6,-1.6 -3.6,-4.5 0,-2.8 1.3,-4.5000001 3.6,-4.5000001 2.3,0 3.600003,1.6000001 3.600003,4.5000001 -0.1,2.9 -1.400003,4.5 -3.600003,4.5 z M 113.75001,5.9264929 c -1.6,0 -2.5,0.4 -4.2,1.9 l 0,-1.5 -4.4,0 0,15.3000001 4.5,0 0,-8.6 c 0,-1.3 0.2,-2 0.7,-2.5 0.5,-0.5 1.2,-0.8000001 1.9,-0.8000001 0.8,0 1.5,0.3000001 1.8,0.9000001 0.4,0.6 0.5,1.2 0.5,2.7 l 0,8.3 4.5,0 0,-9.9 c 0,-3.6000001 -2,-5.8000001 -5.3,-5.8000001 z m 13.5,-4.2 -4.5,0 0,4.8 -2.1,0 0,3.2 2.1,0 0,7.0000001 c 0,2.4 0.2,3.2 0.9,3.9 0.7,0.7 1.6,1 3.6,1 l 2.7,0 0,-3.4 -1.6,0 c -1,0 -1.1,-0.2 -1.1,-2.6 l 0,-5.9000001 2.7,0 0,-3.2 -2.7,0 0,-4.8 z m 18.3,10.2000001 c 0,-2.2000001 -0.4,-3.5000001 -1.5,-4.5000001 -1.2,-1 -3,-1.6 -5.3,-1.6 -4.3,0 -6.5,1.7 -6.8,5.2000001 l 4,0 c 0.2,-1.2000001 1.1,-1.8000001 2.7,-1.8000001 1.5,0 2.3,0.5 2.3,1.4000001 0,0.6 -0.3,0.9 -1.4,1 l -2.4,0.4 c -4.3,0.7 -6.1,2.2 -6.1,5.1 0,2.9 2.2,4.8 5.6,4.8 1.8,0 2.9,-0.4 4.4,-1.6 0.2,0.6 0.2,0.7 0.3,1.2 l 4.6,0 c -0.5,-0.8 -0.6,-1 -0.6,-2.6 l 0,-7 z m -4.3,4.7 c -0.7,1.3 -1.8,1.9 -3.3,1.9 -1.4,0 -2.3,-0.6 -2.3,-1.6 0,-0.9 0.7,-1.5 2.3,-1.8 l 1.6,-0.3 c 0.8,-0.2 1.2,-0.3 1.6,-0.5 l 0,2.3 z m 16.2,-10.5000001 c -1.5,0 -2.7,0.4 -4.2,1.5 l 0,-6.90000004 -4.5,0 0,21.10000014 4.3,0 0,-1.7 c 1.2,1.6 2.4,2.2 4.2,2.1 3.9,0 6.8,-3.2 6.7,-8.2 0,-4.7000001 -2.6,-7.9000001 -6.5,-7.9000001 z m -1.1,12.4000001 c -2,0 -3.3,-1.8 -3.3,-4.4 0,-2.6 1.3,-4.4000001 3.3,-4.4000001 2,0 3.2,1.7000001 3.2,4.5000001 0,2.6 -1.3,4.3 -3.2,4.3 z m 10,3.1 4.5,0 0,-21.10000014 -4.5,0 0,21.10000014 z m 21.5,-11.2 c -1.1,-2.9000001 -3.6,-4.5000001 -6.8,-4.5000001 -4.6,0 -7.8,3.3 -7.8,8.1000001 0,4.8 3.1,8 7.8,8 3.6,0 6.5,-1.9 7.3,-4.9 l -4.6,0 c -0.6,0.9 -1.5,1.4 -2.7,1.4 -1.9,0 -3.2,-1.1 -3.4,-3.2 l 10.8,0 c 0.2,-2.2 0,-3.6 -0.6,-4.9 z m -10,1.7 c 0.3,-1.8 1.5,-2.8000001 3.2,-2.8000001 1.7,0 2.8,1.0000001 3,2.8000001 l -6.2,0 z m 13.1,14.499997 0,9 8.99999,0 0,-9 -8.99999,0 z"
       style="fill:#ffffff;fill-rule:evenodd;stroke:none;stroke-width:1px;stroke-linecap:butt;stroke-linejoin:miter;stroke-opacity:1" />
  </g>
</svg>
